<mxfile host="Electron" modified="2024-04-25T15:00:03.854Z" agent="Mozilla/5.0 (Windows NT 10.0; Win64; x64) AppleWebKit/537.36 (KHTML, like Gecko) draw.io/24.1.0 Chrome/120.0.6099.109 Electron/28.1.0 Safari/537.36" etag="SS5G80OIqSUJKAET-nZE" version="24.1.0" type="device">
  <diagram name="Page-1" id="uN4VsGIUFS_dJ24j_Dtq">
    <mxGraphModel dx="1518" dy="740" grid="1" gridSize="10" guides="1" tooltips="1" connect="1" arrows="1" fold="1" page="1" pageScale="1" pageWidth="850" pageHeight="1100" math="0" shadow="0">
      <root>
        <mxCell id="0" />
        <mxCell id="1" parent="0" />
        <mxCell id="47r6KcuLfK2_igE2usu5-32" value="" style="whiteSpace=wrap;html=1;aspect=fixed;" vertex="1" parent="1">
          <mxGeometry x="170" y="50" width="480" height="480" as="geometry" />
        </mxCell>
        <mxCell id="T88KQhypb85-tlft3riX-9" style="edgeStyle=orthogonalEdgeStyle;rounded=0;orthogonalLoop=1;jettySize=auto;html=1;exitX=0.5;exitY=1;exitDx=0;exitDy=0;" parent="1" source="T88KQhypb85-tlft3riX-1" target="T88KQhypb85-tlft3riX-2" edge="1">
          <mxGeometry relative="1" as="geometry" />
        </mxCell>
        <mxCell id="T88KQhypb85-tlft3riX-1" value="" style="ellipse;fillColor=strokeColor;html=1;" parent="1" vertex="1">
          <mxGeometry x="100" y="90" width="30" height="30" as="geometry" />
        </mxCell>
        <mxCell id="T88KQhypb85-tlft3riX-11" style="edgeStyle=orthogonalEdgeStyle;rounded=0;orthogonalLoop=1;jettySize=auto;html=1;exitX=0.5;exitY=1;exitDx=0;exitDy=0;" parent="1" source="T88KQhypb85-tlft3riX-2" target="T88KQhypb85-tlft3riX-4" edge="1">
          <mxGeometry relative="1" as="geometry" />
        </mxCell>
        <mxCell id="47r6KcuLfK2_igE2usu5-43" value="" style="edgeStyle=orthogonalEdgeStyle;rounded=0;orthogonalLoop=1;jettySize=auto;html=1;" edge="1" parent="1" source="T88KQhypb85-tlft3riX-4" target="47r6KcuLfK2_igE2usu5-42">
          <mxGeometry relative="1" as="geometry" />
        </mxCell>
        <mxCell id="T88KQhypb85-tlft3riX-4" value="Choose Date And Time" style="rounded=1;whiteSpace=wrap;html=1;" parent="1" vertex="1">
          <mxGeometry x="252.5" y="200" width="80" height="40" as="geometry" />
        </mxCell>
        <mxCell id="T88KQhypb85-tlft3riX-6" value="" style="ellipse;html=1;shape=endState;fillColor=#000000;strokeColor=#ff0000;" parent="1" vertex="1">
          <mxGeometry x="65" y="470" width="30" height="30" as="geometry" />
        </mxCell>
        <mxCell id="T88KQhypb85-tlft3riX-22" style="edgeStyle=orthogonalEdgeStyle;rounded=0;orthogonalLoop=1;jettySize=auto;html=1;exitX=0;exitY=0.5;exitDx=0;exitDy=0;" parent="1" source="47r6KcuLfK2_igE2usu5-47" target="T88KQhypb85-tlft3riX-6" edge="1">
          <mxGeometry relative="1" as="geometry">
            <mxPoint x="265" y="470" as="sourcePoint" />
          </mxGeometry>
        </mxCell>
        <mxCell id="T88KQhypb85-tlft3riX-2" value="Select Patient" style="rounded=1;whiteSpace=wrap;html=1;" parent="1" vertex="1">
          <mxGeometry x="240" y="120" width="105" height="40" as="geometry" />
        </mxCell>
        <mxCell id="47r6KcuLfK2_igE2usu5-34" value="" style="endArrow=none;html=1;rounded=0;entryX=0.5;entryY=0;entryDx=0;entryDy=0;exitX=0.5;exitY=1;exitDx=0;exitDy=0;" edge="1" parent="1" source="47r6KcuLfK2_igE2usu5-32" target="47r6KcuLfK2_igE2usu5-32">
          <mxGeometry width="50" height="50" relative="1" as="geometry">
            <mxPoint x="125" y="180" as="sourcePoint" />
            <mxPoint x="175" y="130" as="targetPoint" />
          </mxGeometry>
        </mxCell>
        <mxCell id="47r6KcuLfK2_igE2usu5-35" value="" style="endArrow=none;html=1;rounded=0;entryX=0.002;entryY=0.094;entryDx=0;entryDy=0;entryPerimeter=0;exitX=0.997;exitY=0.094;exitDx=0;exitDy=0;exitPerimeter=0;" edge="1" parent="1" source="47r6KcuLfK2_igE2usu5-32" target="47r6KcuLfK2_igE2usu5-32">
          <mxGeometry width="50" height="50" relative="1" as="geometry">
            <mxPoint x="115" y="140" as="sourcePoint" />
            <mxPoint x="165" y="90" as="targetPoint" />
          </mxGeometry>
        </mxCell>
        <mxCell id="47r6KcuLfK2_igE2usu5-36" value="Reception" style="text;html=1;align=center;verticalAlign=middle;resizable=0;points=[];autosize=1;strokeColor=none;fillColor=none;" vertex="1" parent="1">
          <mxGeometry x="225" y="50" width="80" height="30" as="geometry" />
        </mxCell>
        <mxCell id="47r6KcuLfK2_igE2usu5-37" value="Doctor" style="text;html=1;align=center;verticalAlign=middle;resizable=0;points=[];autosize=1;strokeColor=none;fillColor=none;" vertex="1" parent="1">
          <mxGeometry x="440" y="50" width="60" height="30" as="geometry" />
        </mxCell>
        <mxCell id="47r6KcuLfK2_igE2usu5-54" style="edgeStyle=orthogonalEdgeStyle;rounded=0;orthogonalLoop=1;jettySize=auto;html=1;exitX=1;exitY=0.5;exitDx=0;exitDy=0;exitPerimeter=0;entryX=0.5;entryY=0;entryDx=0;entryDy=0;" edge="1" parent="1" source="47r6KcuLfK2_igE2usu5-42" target="47r6KcuLfK2_igE2usu5-44">
          <mxGeometry relative="1" as="geometry" />
        </mxCell>
        <mxCell id="47r6KcuLfK2_igE2usu5-56" style="edgeStyle=orthogonalEdgeStyle;rounded=0;orthogonalLoop=1;jettySize=auto;html=1;exitX=0.5;exitY=1;exitDx=0;exitDy=0;exitPerimeter=0;" edge="1" parent="1" source="47r6KcuLfK2_igE2usu5-42" target="47r6KcuLfK2_igE2usu5-55">
          <mxGeometry relative="1" as="geometry" />
        </mxCell>
        <mxCell id="47r6KcuLfK2_igE2usu5-42" value="Check" style="strokeWidth=2;html=1;shape=mxgraph.flowchart.decision;whiteSpace=wrap;" vertex="1" parent="1">
          <mxGeometry x="450" y="205" width="70" height="30" as="geometry" />
        </mxCell>
        <mxCell id="47r6KcuLfK2_igE2usu5-48" value="" style="edgeStyle=orthogonalEdgeStyle;rounded=0;orthogonalLoop=1;jettySize=auto;html=1;exitX=0.5;exitY=1;exitDx=0;exitDy=0;" edge="1" parent="1" source="47r6KcuLfK2_igE2usu5-44" target="47r6KcuLfK2_igE2usu5-47">
          <mxGeometry relative="1" as="geometry">
            <Array as="points">
              <mxPoint x="569" y="470" />
            </Array>
          </mxGeometry>
        </mxCell>
        <mxCell id="47r6KcuLfK2_igE2usu5-44" value="Confirm Appointment" style="whiteSpace=wrap;html=1;strokeWidth=2;" vertex="1" parent="1">
          <mxGeometry x="520" y="240" width="97.5" height="40" as="geometry" />
        </mxCell>
        <mxCell id="47r6KcuLfK2_igE2usu5-47" value="Notify Patient" style="rounded=1;whiteSpace=wrap;html=1;strokeWidth=2;" vertex="1" parent="1">
          <mxGeometry x="246.88" y="460" width="91.25" height="30" as="geometry" />
        </mxCell>
        <mxCell id="47r6KcuLfK2_igE2usu5-57" style="edgeStyle=orthogonalEdgeStyle;rounded=0;orthogonalLoop=1;jettySize=auto;html=1;exitX=0.5;exitY=1;exitDx=0;exitDy=0;entryX=0.5;entryY=0;entryDx=0;entryDy=0;" edge="1" parent="1" source="47r6KcuLfK2_igE2usu5-55" target="47r6KcuLfK2_igE2usu5-47">
          <mxGeometry relative="1" as="geometry" />
        </mxCell>
        <mxCell id="47r6KcuLfK2_igE2usu5-55" value="Send an available date" style="whiteSpace=wrap;html=1;align=center;" vertex="1" parent="1">
          <mxGeometry x="435" y="290" width="100" height="40" as="geometry" />
        </mxCell>
      </root>
    </mxGraphModel>
  </diagram>
</mxfile>
